<svg width="43" height="32" viewBox="0 0 43 32" fill="none" xmlns="http://www.w3.org/2000/svg">
<path d="M21.4585 31.4192C16.9774 31.4192 12.4963 31.4192 8.01518 31.4192C6.23857 31.4192 5.41175 30.7873 4.96121 29.0581C3.34167 22.8455 1.73797 16.6279 0.107482 10.4177C-0.427085 8.38049 1.12304 6.85593 2.75231 6.98866C3.21016 7.02641 3.6668 7.19689 4.10273 7.36249C6.56491 8.30134 9.02465 9.24627 11.4746 10.2155C11.9362 10.3982 12.2053 10.3251 12.5121 9.92574C14.7466 7.02763 17.0042 4.14779 19.2545 1.26307C20.1227 0.150099 21.1724 -0.234692 22.3146 0.137922C22.9003 0.3291 23.3313 0.715109 23.7039 1.19488C25.9786 4.11978 28.2666 7.03372 30.5315 9.96592C30.8177 10.3373 31.0795 10.3933 31.4996 10.2289C34.1091 9.2073 36.7247 8.19905 39.344 7.20176C40.8442 6.63066 42.359 7.315 42.8656 8.75919C43.0701 9.34246 43.0239 9.91478 42.8704 10.5017C41.246 16.7302 39.6289 22.9599 38.0106 29.1896C37.6124 30.7239 36.7284 31.4168 35.1308 31.418C30.5729 31.4217 26.0151 31.4192 21.4585 31.4192Z" fill="white"/>
</svg>
