<svg width="43" height="43" viewBox="0 0 43 43" fill="none" xmlns="http://www.w3.org/2000/svg">
<path d="M34.0417 30.4583C32.1543 30.4576 30.3003 29.9595 28.6667 29.0142C27.0331 29.9595 25.1791 30.4576 23.2917 30.4583H19.7084C17.8183 30.4559 15.963 29.95 14.3334 28.9927C12.7037 29.9501 10.8484 30.456 8.95835 30.4583H7.16669C5.2776 30.4576 3.42261 29.9549 1.79169 29.0016V37.6249C1.79169 39.0505 2.35798 40.4176 3.36599 41.4256C4.374 42.4336 5.74115 42.9999 7.16669 42.9999H35.8334C37.2589 42.9999 38.626 42.4336 39.6341 41.4256C40.6421 40.4176 41.2084 39.0505 41.2084 37.6249V29.0034C39.577 29.9554 37.7222 30.4574 35.8334 30.4583H34.0417Z" fill="white"/>
<path d="M30.4583 0V10.75H26.875V0H16.125V10.75H12.5417V0H3.94167L0.043 17.5279L0 19.7083C0 21.6091 0.755057 23.4319 2.09907 24.7759C3.44308 26.1199 5.26595 26.875 7.16667 26.875H8.95833C9.97939 26.8717 10.9878 26.6489 11.9152 26.2217C12.8426 25.7945 13.6673 25.1728 14.3333 24.3989C14.9994 25.1728 15.8241 25.7945 16.7515 26.2217C17.6789 26.6489 18.6873 26.8717 19.7083 26.875H23.2917C24.309 26.8755 25.3147 26.6589 26.2417 26.2396C27.1686 25.8204 27.9953 25.2081 28.6667 24.4437C29.338 25.2081 30.1648 25.8204 31.0917 26.2396C32.0186 26.6589 33.0243 26.8755 34.0417 26.875H35.8333C37.7341 26.875 39.5569 26.1199 40.9009 24.7759C42.2449 23.4319 43 21.6091 43 19.7083V17.9167L39.0583 0H30.4583Z" fill="white"/>
</svg>
