<svg width="43" height="40" viewBox="0 0 43 40" fill="none" xmlns="http://www.w3.org/2000/svg">
<path d="M26.875 30.4583H7.16667C5.26595 30.4583 3.44308 29.7033 2.09907 28.3593C0.755057 27.0153 0 25.1924 0 23.2917V8.95833C0 6.58244 0.943822 4.30385 2.62384 2.62384C4.30385 0.943822 6.58244 0 8.95833 0H17.9167C19.0931 0 20.258 0.231714 21.3449 0.681913C22.4317 1.13211 23.4193 1.79198 24.2512 2.62384C25.083 3.45569 25.7429 4.44325 26.1931 5.53013C26.6433 6.617 26.875 7.78191 26.875 8.95833V30.4583ZM43 17.9167V16.125C43 14.9486 42.7683 13.7837 42.3181 12.6968C41.8679 11.6099 41.208 10.6224 40.3762 9.7905C39.5443 8.95864 38.5567 8.29878 37.4699 7.84858C36.383 7.39838 35.2181 7.16667 34.0417 7.16667H30.4583V17.9167H43ZM30.4583 21.5V30.4583H35.8333C37.7341 30.4583 39.5569 29.7033 40.9009 28.3593C42.2449 27.0153 43 25.1924 43 23.2917V21.5H30.4583ZM7.27058 34.0417C7.20495 34.3359 7.17012 34.6361 7.16667 34.9375C7.16667 36.1255 7.63858 37.2647 8.47858 38.1048C9.31859 38.9448 10.4579 39.4167 11.6458 39.4167C12.8338 39.4167 13.9731 38.9448 14.8131 38.1048C15.6531 37.2647 16.125 36.1255 16.125 34.9375C16.1215 34.6361 16.0867 34.3359 16.0211 34.0417H7.27058ZM26.9789 34.0417C26.9133 34.3359 26.8785 34.6361 26.875 34.9375C26.875 36.1255 27.3469 37.2647 28.1869 38.1048C29.0269 38.9448 30.1662 39.4167 31.3542 39.4167C32.5421 39.4167 33.6814 38.9448 34.5214 38.1048C35.3614 37.2647 35.8333 36.1255 35.8333 34.9375C35.8299 34.6361 35.795 34.3359 35.7294 34.0417H26.9789Z" fill="white"/>
</svg>
