<svg width="43" height="44" viewBox="0 0 43 44" fill="none" xmlns="http://www.w3.org/2000/svg">
<path d="M29.102 19.2971C27.0861 17.2809 24.3518 16.1481 21.5006 16.1479C18.6495 16.1478 15.915 17.2802 13.8989 19.2962C11.8827 21.3121 10.7499 24.0464 10.7497 26.8976C10.7496 29.7487 11.882 32.4832 13.898 34.4994L20.1813 40.6448C20.5338 40.9893 21.0071 41.1822 21.5 41.1822C21.9929 41.1822 22.4662 40.9893 22.8187 40.6448L29.102 34.4994C31.1179 32.4834 32.2504 29.7492 32.2504 26.8982C32.2504 24.0473 31.1179 21.3131 29.102 19.2971ZM21.5 30.4592C20.7913 30.4592 20.0985 30.249 19.5092 29.8553C18.9199 29.4615 18.4606 28.9019 18.1894 28.2471C17.9182 27.5923 17.8473 26.8719 17.9855 26.1768C18.1238 25.4817 18.4651 24.8432 18.9662 24.342C19.4673 23.8409 20.1058 23.4996 20.8009 23.3613C21.496 23.2231 22.2165 23.294 22.8713 23.5653C23.526 23.8365 24.0857 24.2958 24.4794 24.885C24.8732 25.4743 25.0833 26.1671 25.0833 26.8758C25.0833 27.8262 24.7058 28.7376 24.0338 29.4096C23.3618 30.0816 22.4504 30.4592 21.5 30.4592Z" fill="white"/>
<path d="M39.0583 10.0073L26.5167 1.5435C25.037 0.537765 23.2891 0 21.5 0C19.7109 0 17.963 0.537765 16.4833 1.5435L3.94167 10.0073C2.72642 10.8274 1.73135 11.9337 1.04402 13.2286C0.35669 14.5236 -0.00182922 15.9677 7.01809e-06 17.4338V34.0533C0.00285193 36.4283 0.947587 38.7052 2.62698 40.3846C4.30638 42.064 6.58331 43.0088 8.95834 43.0116H17.4759L11.3932 37.0615C10.0475 35.7352 8.97728 34.156 8.24411 32.4147C7.51094 30.6733 7.12929 28.8042 7.12111 26.9148C7.11294 25.0254 7.4784 23.153 8.19647 21.4054C8.91454 19.6577 9.97105 18.0693 11.3052 16.7314C12.6394 15.3936 14.225 14.3327 15.9706 13.6099C17.7163 12.887 19.5877 12.5164 21.4771 12.5194C23.3665 12.5224 25.2366 12.899 26.98 13.6273C28.7234 14.3557 30.3055 15.4216 31.6355 16.7637C34.3231 19.4517 35.833 23.0971 35.833 26.8983C35.833 30.6994 34.3231 34.3449 31.6355 37.0328L25.5223 43.0116H34.0417C36.4167 43.0088 38.6936 42.064 40.373 40.3846C42.0524 38.7052 42.9972 36.4283 43 34.0533V17.4338C43.0007 15.9679 42.6418 14.5242 41.9545 13.2294C41.2673 11.9346 40.2728 10.8282 39.0583 10.0073Z" fill="white"/>
</svg>
